<svg width="69" height="22" viewBox="0 0 69 22" fill="none" xmlns="http://www.w3.org/2000/svg">
<path d="M7.99589 3.44824C6.02089 3.44824 4.54443 3.89885 3.56651 4.80006C2.60777 5.6821 2.1284 6.96682 2.1284 8.6542V11.4729H11.735V13.3137H2.1284V21.8561H0V8.62544C0 6.42033 0.690293 4.6946 2.07088 3.44824C3.45146 2.1827 5.39771 1.54994 7.90961 1.54994C10.3448 1.54994 12.3006 2.07724 13.7771 3.13186L13.0005 4.88635C11.6966 3.92761 10.0284 3.44824 7.99589 3.44824Z" fill="#12181D"/>
<path d="M21.3002 21.9999C19.9388 21.9999 18.8842 21.6164 18.1364 20.8494C17.4077 20.0824 17.0434 19.0182 17.0434 17.6568V0.514496H19.0855V17.4842C19.0855 18.3854 19.2964 19.0757 19.7183 19.5551C20.1401 20.0153 20.7729 20.2454 21.6166 20.2454C22.1535 20.2454 22.6137 20.1591 22.9972 19.9865L23.141 21.6835C22.5466 21.8944 21.933 21.9999 21.3002 21.9999Z" fill="#12181D"/>
<path d="M31.8222 21.9999C30.3649 21.9999 29.0515 21.6739 27.8818 21.0219C26.7121 20.3508 25.7918 19.4304 25.1206 18.2608C24.4495 17.0911 24.114 15.7681 24.114 14.2916C24.114 12.8151 24.4495 11.4921 25.1206 10.3224C25.7918 9.15274 26.7121 8.24194 27.8818 7.59C29.0515 6.93805 30.3649 6.61208 31.8222 6.61208C33.2795 6.61208 34.593 6.93805 35.7626 7.59C36.9323 8.24194 37.8431 9.15274 38.4951 10.3224C39.1662 11.4921 39.5017 12.8151 39.5017 14.2916C39.5017 15.7681 39.1662 17.0911 38.4951 18.2608C37.8431 19.4304 36.9323 20.3508 35.7626 21.0219C34.593 21.6739 33.2795 21.9999 31.8222 21.9999ZM31.8222 20.1878C32.896 20.1878 33.8548 19.9482 34.6984 19.4688C35.5613 18.9702 36.2324 18.2704 36.7118 17.3691C37.1912 16.4679 37.4309 15.4421 37.4309 14.2916C37.4309 13.1411 37.1912 12.1153 36.7118 11.214C36.2324 10.3128 35.5613 9.62253 34.6984 9.14316C33.8548 8.64461 32.896 8.39534 31.8222 8.39534C30.7484 8.39534 29.7801 8.64461 28.9172 9.14316C28.0736 9.62253 27.4024 10.3128 26.9039 11.214C26.4245 12.1153 26.1848 13.1411 26.1848 14.2916C26.1848 15.4421 26.4245 16.4679 26.9039 17.3691C27.4024 18.2704 28.0736 18.9702 28.9172 19.4688C29.7801 19.9482 30.7484 20.1878 31.8222 20.1878Z" fill="#12181D"/>
<path d="M45.6267 9.68964C46.1061 8.67337 46.8156 7.90638 47.7551 7.38866C48.7139 6.87094 49.8931 6.61208 51.2929 6.61208V8.59667L50.8039 8.56791C49.2124 8.56791 47.9661 9.05687 47.0648 10.0348C46.1636 11.0127 45.713 12.3837 45.713 14.1478V21.8561H43.6709V6.72713H45.6267V9.68964Z" fill="#12181D"/>
<path d="M68.6558 6.72713V21.8561H66.7V18.8648C66.0864 19.881 65.2715 20.6576 64.2552 21.1945C63.2581 21.7314 62.1268 21.9999 60.8613 21.9999C59.4423 21.9999 58.1576 21.6739 57.0071 21.0219C55.8566 20.37 54.9554 19.4592 54.3035 18.2895C53.6515 17.1199 53.3256 15.7872 53.3256 14.2916C53.3256 12.796 53.6515 11.4633 54.3035 10.2936C54.9554 9.12398 55.8566 8.22277 57.0071 7.59C58.1576 6.93805 59.4423 6.61208 60.8613 6.61208C62.0884 6.61208 63.191 6.87094 64.1689 7.38866C65.166 7.88721 65.9809 8.62544 66.6137 9.60335V6.72713H68.6558ZM61.0338 20.1878C62.0884 20.1878 63.0376 19.9482 63.8813 19.4688C64.7442 18.9702 65.4153 18.2704 65.8946 17.3691C66.3932 16.4679 66.6425 15.4421 66.6425 14.2916C66.6425 13.1411 66.3932 12.1153 65.8946 11.214C65.4153 10.3128 64.7442 9.62253 63.8813 9.14316C63.0376 8.64461 62.0884 8.39534 61.0338 8.39534C59.96 8.39534 58.9917 8.64461 58.1288 9.14316C57.2852 9.62253 56.614 10.3128 56.1155 11.214C55.6361 12.1153 55.3964 13.1411 55.3964 14.2916C55.3964 15.4421 55.6361 16.4679 56.1155 17.3691C56.614 18.2704 57.2852 18.9702 58.1288 19.4688C58.9917 19.9482 59.96 20.1878 61.0338 20.1878Z" fill="#12181D"/>
</svg>
